<mxfile host="65bd71144e">
    <diagram id="CkPtGJqtL_M-PeXA5Xmx" name="第 1 页">
        <mxGraphModel dx="1127" dy="756" grid="1" gridSize="10" guides="1" tooltips="1" connect="1" arrows="1" fold="1" page="1" pageScale="1" pageWidth="827" pageHeight="1169" math="1" shadow="0">
            <root>
                <mxCell id="0"/>
                <mxCell id="1" parent="0"/>
                <mxCell id="125" value="&lt;font style=&quot;font-size: 19px;&quot; face=&quot;Times New Roman&quot;&gt;(a) &lt;/font&gt;&lt;font style=&quot;font-size: 19px;&quot;&gt;情况&lt;/font&gt;&lt;font style=&quot;font-size: 19px;&quot;&gt;2.1.1&lt;/font&gt;" style="rounded=0;whiteSpace=wrap;html=1;container=1;verticalAlign=bottom;strokeColor=none;fontFamily=SimSun;fontSize=19;fillColor=none;" vertex="1" parent="1">
                    <mxGeometry x="14" y="100" width="800" height="230" as="geometry">
                        <mxRectangle x="177" y="190" width="50" height="40" as="alternateBounds"/>
                    </mxGeometry>
                </mxCell>
                <mxCell id="81" value="" style="group" vertex="1" connectable="0" parent="125">
                    <mxGeometry x="6.5" y="-2.2737367544323206e-13" width="787" height="220.00000000000023" as="geometry"/>
                </mxCell>
                <mxCell id="39" value="" style="group" vertex="1" connectable="0" parent="81">
                    <mxGeometry width="280" height="220.00000000000023" as="geometry"/>
                </mxCell>
                <mxCell id="38" style="edgeStyle=none;html=1;endArrow=none;endFill=0;" edge="1" parent="39" source="21">
                    <mxGeometry relative="1" as="geometry">
                        <mxPoint x="110" as="targetPoint"/>
                    </mxGeometry>
                </mxCell>
                <mxCell id="21" value="\(p\)" style="ellipse;whiteSpace=wrap;html=1;fontFamily=Times New Roman;fontSize=19;container=0;fillColor=#DDD;fontColor=default;strokeWidth=0.5;fontStyle=0;" vertex="1" parent="39">
                    <mxGeometry x="90" y="20" width="40" height="40" as="geometry"/>
                </mxCell>
                <mxCell id="22" value="\(u\)" style="ellipse;whiteSpace=wrap;html=1;fontFamily=Times New Roman;fontSize=19;container=0;fillColor=#808080;fontColor=#FFFFFF;strokeWidth=0.5;fontStyle=0;" vertex="1" parent="39">
                    <mxGeometry x="30" y="70" width="40" height="40" as="geometry"/>
                </mxCell>
                <mxCell id="23" style="edgeStyle=none;html=1;endArrow=none;endFill=0;" edge="1" parent="39" source="21" target="22">
                    <mxGeometry relative="1" as="geometry"/>
                </mxCell>
                <mxCell id="24" value="\(s\)" style="ellipse;whiteSpace=wrap;html=1;fontFamily=Times New Roman;fontSize=19;container=0;fillColor=#808080;strokeWidth=0.5;fontStyle=0;fontColor=#FFFFFF;" vertex="1" parent="39">
                    <mxGeometry x="150" y="70" width="40" height="40" as="geometry"/>
                </mxCell>
                <mxCell id="25" style="edgeStyle=none;html=1;endArrow=none;endFill=0;" edge="1" parent="39" source="21" target="24">
                    <mxGeometry relative="1" as="geometry"/>
                </mxCell>
                <mxCell id="26" value="\(n_1\)" style="ellipse;whiteSpace=wrap;html=1;fontFamily=Times New Roman;fontSize=19;container=0;fillColor=#808080;fontColor=#FFFFFF;strokeWidth=0.5;fontStyle=0;" vertex="1" parent="39">
                    <mxGeometry x="120" y="120" width="40" height="40" as="geometry"/>
                </mxCell>
                <mxCell id="27" style="edgeStyle=none;html=1;endArrow=none;endFill=0;" edge="1" parent="39" source="24" target="26">
                    <mxGeometry relative="1" as="geometry"/>
                </mxCell>
                <mxCell id="28" value="\(n_2\)" style="ellipse;whiteSpace=wrap;html=1;fontFamily=Times New Roman;fontSize=19;container=0;fillColor=#808080;fontColor=#FFFFFF;strokeWidth=0.5;fontStyle=0;" vertex="1" parent="39">
                    <mxGeometry x="180" y="120" width="40" height="40" as="geometry"/>
                </mxCell>
                <mxCell id="29" style="edgeStyle=none;html=1;endArrow=none;endFill=0;" edge="1" parent="39" source="24" target="28">
                    <mxGeometry relative="1" as="geometry"/>
                </mxCell>
                <mxCell id="30" value="\(h-2\)" style="ellipse;whiteSpace=wrap;html=1;fontFamily=Times New Roman;fontSize=19;container=0;fillColor=none;strokeWidth=0.5;fontStyle=0;strokeColor=none;" vertex="1" parent="39">
                    <mxGeometry x="120" y="170" width="40" height="40" as="geometry"/>
                </mxCell>
                <mxCell id="31" style="edgeStyle=none;html=1;endArrow=none;endFill=0;" edge="1" parent="39" source="26" target="30">
                    <mxGeometry relative="1" as="geometry">
                        <mxPoint x="140" y="170" as="targetPoint"/>
                    </mxGeometry>
                </mxCell>
                <mxCell id="32" value="\(h-2\)" style="ellipse;whiteSpace=wrap;html=1;fontFamily=Times New Roman;fontSize=19;container=0;fillColor=none;strokeWidth=0.5;fontStyle=0;strokeColor=none;" vertex="1" parent="39">
                    <mxGeometry x="180" y="170" width="40" height="40" as="geometry"/>
                </mxCell>
                <mxCell id="33" style="edgeStyle=none;html=1;endArrow=none;endFill=0;" edge="1" parent="39" source="28" target="32">
                    <mxGeometry relative="1" as="geometry">
                        <mxPoint x="200" y="170" as="targetPoint"/>
                    </mxGeometry>
                </mxCell>
                <mxCell id="34" value="\(h-2\)" style="ellipse;whiteSpace=wrap;html=1;fontFamily=Times New Roman;fontSize=19;container=0;fillColor=none;strokeWidth=0.5;fontStyle=0;strokeColor=none;" vertex="1" parent="39">
                    <mxGeometry y="120" width="40" height="40" as="geometry"/>
                </mxCell>
                <mxCell id="35" style="edgeStyle=none;html=1;endArrow=none;endFill=0;" edge="1" parent="39" source="22" target="34">
                    <mxGeometry relative="1" as="geometry"/>
                </mxCell>
                <mxCell id="36" value="\(h-2\)" style="ellipse;whiteSpace=wrap;html=1;fontFamily=Times New Roman;fontSize=19;container=0;fillColor=none;strokeWidth=0.5;fontStyle=0;strokeColor=none;" vertex="1" parent="39">
                    <mxGeometry x="60" y="120" width="40" height="40" as="geometry"/>
                </mxCell>
                <mxCell id="37" style="edgeStyle=none;html=1;endArrow=none;endFill=0;" edge="1" parent="39" source="22" target="36">
                    <mxGeometry relative="1" as="geometry"/>
                </mxCell>
                <mxCell id="40" value="" style="group" vertex="1" connectable="0" parent="81">
                    <mxGeometry x="250" width="220" height="210" as="geometry"/>
                </mxCell>
                <mxCell id="41" style="edgeStyle=none;html=1;endArrow=none;endFill=0;" edge="1" parent="40" source="42">
                    <mxGeometry relative="1" as="geometry">
                        <mxPoint x="110" as="targetPoint"/>
                    </mxGeometry>
                </mxCell>
                <mxCell id="42" value="\(p\)" style="ellipse;whiteSpace=wrap;html=1;fontFamily=Times New Roman;fontSize=19;container=0;fillColor=#DDD;fontColor=default;strokeWidth=0.5;fontStyle=0;" vertex="1" parent="40">
                    <mxGeometry x="90" y="20" width="40" height="40" as="geometry"/>
                </mxCell>
                <mxCell id="43" value="\(u\)" style="ellipse;whiteSpace=wrap;html=1;fontFamily=Times New Roman;fontSize=19;container=0;fillColor=#808080;fontColor=#FFFFFF;strokeWidth=0.5;fontStyle=0;" vertex="1" parent="40">
                    <mxGeometry x="30" y="70" width="40" height="40" as="geometry"/>
                </mxCell>
                <mxCell id="44" style="edgeStyle=none;html=1;endArrow=none;endFill=0;" edge="1" parent="40" source="42" target="43">
                    <mxGeometry relative="1" as="geometry"/>
                </mxCell>
                <mxCell id="45" value="\(s\)" style="ellipse;whiteSpace=wrap;html=1;fontFamily=Times New Roman;fontSize=19;container=0;fillColor=#DDD;strokeWidth=0.5;fontStyle=0;fontColor=default;" vertex="1" parent="40">
                    <mxGeometry x="150" y="70" width="40" height="40" as="geometry"/>
                </mxCell>
                <mxCell id="46" style="edgeStyle=none;html=1;endArrow=none;endFill=0;" edge="1" parent="40" source="42" target="45">
                    <mxGeometry relative="1" as="geometry"/>
                </mxCell>
                <mxCell id="47" value="\(n_1\)" style="ellipse;whiteSpace=wrap;html=1;fontFamily=Times New Roman;fontSize=19;container=0;fillColor=#808080;fontColor=#FFFFFF;strokeWidth=0.5;fontStyle=0;" vertex="1" parent="40">
                    <mxGeometry x="120" y="120" width="40" height="40" as="geometry"/>
                </mxCell>
                <mxCell id="48" style="edgeStyle=none;html=1;endArrow=none;endFill=0;" edge="1" parent="40" source="45" target="47">
                    <mxGeometry relative="1" as="geometry"/>
                </mxCell>
                <mxCell id="49" value="\(n_2\)" style="ellipse;whiteSpace=wrap;html=1;fontFamily=Times New Roman;fontSize=19;container=0;fillColor=#808080;fontColor=#FFFFFF;strokeWidth=0.5;fontStyle=0;" vertex="1" parent="40">
                    <mxGeometry x="180" y="120" width="40" height="40" as="geometry"/>
                </mxCell>
                <mxCell id="50" style="edgeStyle=none;html=1;endArrow=none;endFill=0;" edge="1" parent="40" source="45" target="49">
                    <mxGeometry relative="1" as="geometry"/>
                </mxCell>
                <mxCell id="51" value="\(h-2\)" style="ellipse;whiteSpace=wrap;html=1;fontFamily=Times New Roman;fontSize=19;container=0;fillColor=none;strokeWidth=0.5;fontStyle=0;strokeColor=none;" vertex="1" parent="40">
                    <mxGeometry x="120" y="170" width="40" height="40" as="geometry"/>
                </mxCell>
                <mxCell id="52" style="edgeStyle=none;html=1;endArrow=none;endFill=0;" edge="1" parent="40" source="47" target="51">
                    <mxGeometry relative="1" as="geometry">
                        <mxPoint x="140" y="170" as="targetPoint"/>
                    </mxGeometry>
                </mxCell>
                <mxCell id="53" value="\(h-2\)" style="ellipse;whiteSpace=wrap;html=1;fontFamily=Times New Roman;fontSize=19;container=0;fillColor=none;strokeWidth=0.5;fontStyle=0;strokeColor=none;" vertex="1" parent="40">
                    <mxGeometry x="180" y="170" width="40" height="40" as="geometry"/>
                </mxCell>
                <mxCell id="54" style="edgeStyle=none;html=1;endArrow=none;endFill=0;" edge="1" parent="40" source="49" target="53">
                    <mxGeometry relative="1" as="geometry">
                        <mxPoint x="200" y="170" as="targetPoint"/>
                    </mxGeometry>
                </mxCell>
                <mxCell id="55" value="\(h-2\)" style="ellipse;whiteSpace=wrap;html=1;fontFamily=Times New Roman;fontSize=19;container=0;fillColor=none;strokeWidth=0.5;fontStyle=0;strokeColor=none;" vertex="1" parent="40">
                    <mxGeometry y="120" width="40" height="40" as="geometry"/>
                </mxCell>
                <mxCell id="56" style="edgeStyle=none;html=1;endArrow=none;endFill=0;" edge="1" parent="40" source="43" target="55">
                    <mxGeometry relative="1" as="geometry"/>
                </mxCell>
                <mxCell id="57" value="\(h-2\)" style="ellipse;whiteSpace=wrap;html=1;fontFamily=Times New Roman;fontSize=19;container=0;fillColor=none;strokeWidth=0.5;fontStyle=0;strokeColor=none;" vertex="1" parent="40">
                    <mxGeometry x="60" y="120" width="40" height="40" as="geometry"/>
                </mxCell>
                <mxCell id="58" style="edgeStyle=none;html=1;endArrow=none;endFill=0;" edge="1" parent="40" source="43" target="57">
                    <mxGeometry relative="1" as="geometry"/>
                </mxCell>
                <mxCell id="59" value="" style="group" vertex="1" connectable="0" parent="81">
                    <mxGeometry x="500" width="220" height="210" as="geometry"/>
                </mxCell>
                <mxCell id="60" style="edgeStyle=none;html=1;endArrow=none;endFill=0;" edge="1" parent="59" source="61">
                    <mxGeometry relative="1" as="geometry">
                        <mxPoint x="110" as="targetPoint"/>
                    </mxGeometry>
                </mxCell>
                <mxCell id="61" value="\(p\)" style="ellipse;whiteSpace=wrap;html=1;fontFamily=Times New Roman;fontSize=19;container=0;fillColor=#DDD;fontColor=default;strokeWidth=0.5;fontStyle=0;" vertex="1" parent="59">
                    <mxGeometry x="90" y="20" width="40" height="40" as="geometry"/>
                </mxCell>
                <mxCell id="62" value="\(u\)" style="ellipse;whiteSpace=wrap;html=1;fontFamily=Times New Roman;fontSize=19;container=0;fillColor=#808080;fontColor=#FFFFFF;strokeWidth=0.5;fontStyle=0;" vertex="1" parent="59">
                    <mxGeometry x="30" y="70" width="40" height="40" as="geometry"/>
                </mxCell>
                <mxCell id="63" style="edgeStyle=none;html=1;endArrow=none;endFill=0;" edge="1" parent="59" source="61" target="62">
                    <mxGeometry relative="1" as="geometry"/>
                </mxCell>
                <mxCell id="64" value="\(s\)" style="ellipse;whiteSpace=wrap;html=1;fontFamily=Times New Roman;fontSize=19;container=0;fillColor=#DDD;strokeWidth=0.5;fontStyle=0;fontColor=default;" vertex="1" parent="59">
                    <mxGeometry x="150" y="70" width="40" height="40" as="geometry"/>
                </mxCell>
                <mxCell id="65" style="edgeStyle=none;html=1;endArrow=none;endFill=0;" edge="1" parent="59" source="61" target="64">
                    <mxGeometry relative="1" as="geometry"/>
                </mxCell>
                <mxCell id="66" value="\(n_1\)" style="ellipse;whiteSpace=wrap;html=1;fontFamily=Times New Roman;fontSize=19;container=0;fillColor=#808080;fontColor=#FFFFFF;strokeWidth=0.5;fontStyle=0;" vertex="1" parent="59">
                    <mxGeometry x="120" y="120" width="40" height="40" as="geometry"/>
                </mxCell>
                <mxCell id="67" style="edgeStyle=none;html=1;endArrow=none;endFill=0;" edge="1" parent="59" source="64" target="66">
                    <mxGeometry relative="1" as="geometry"/>
                </mxCell>
                <mxCell id="68" value="\(n_2\)" style="ellipse;whiteSpace=wrap;html=1;fontFamily=Times New Roman;fontSize=19;container=0;fillColor=#808080;fontColor=#FFFFFF;strokeWidth=0.5;fontStyle=0;" vertex="1" parent="59">
                    <mxGeometry x="180" y="120" width="40" height="40" as="geometry"/>
                </mxCell>
                <mxCell id="69" style="edgeStyle=none;html=1;endArrow=none;endFill=0;" edge="1" parent="59" source="64" target="68">
                    <mxGeometry relative="1" as="geometry"/>
                </mxCell>
                <mxCell id="70" value="\(h-2\)" style="ellipse;whiteSpace=wrap;html=1;fontFamily=Times New Roman;fontSize=19;container=0;fillColor=none;strokeWidth=0.5;fontStyle=0;strokeColor=none;" vertex="1" parent="59">
                    <mxGeometry x="120" y="170" width="40" height="40" as="geometry"/>
                </mxCell>
                <mxCell id="71" style="edgeStyle=none;html=1;endArrow=none;endFill=0;" edge="1" parent="59" source="66" target="70">
                    <mxGeometry relative="1" as="geometry">
                        <mxPoint x="140" y="170" as="targetPoint"/>
                    </mxGeometry>
                </mxCell>
                <mxCell id="72" value="\(h-2\)" style="ellipse;whiteSpace=wrap;html=1;fontFamily=Times New Roman;fontSize=19;container=0;fillColor=none;strokeWidth=0.5;fontStyle=0;strokeColor=none;" vertex="1" parent="59">
                    <mxGeometry x="180" y="170" width="40" height="40" as="geometry"/>
                </mxCell>
                <mxCell id="73" style="edgeStyle=none;html=1;endArrow=none;endFill=0;" edge="1" parent="59" source="68" target="72">
                    <mxGeometry relative="1" as="geometry">
                        <mxPoint x="200" y="170" as="targetPoint"/>
                    </mxGeometry>
                </mxCell>
                <mxCell id="74" value="\(h-2\)" style="ellipse;whiteSpace=wrap;html=1;fontFamily=Times New Roman;fontSize=19;container=0;fillColor=none;strokeWidth=0.5;fontStyle=0;strokeColor=none;" vertex="1" parent="59">
                    <mxGeometry y="120" width="40" height="40" as="geometry"/>
                </mxCell>
                <mxCell id="75" style="edgeStyle=none;html=1;endArrow=none;endFill=0;" edge="1" parent="59" source="62" target="74">
                    <mxGeometry relative="1" as="geometry"/>
                </mxCell>
                <mxCell id="76" value="\(h-2\)" style="ellipse;whiteSpace=wrap;html=1;fontFamily=Times New Roman;fontSize=19;container=0;fillColor=none;strokeWidth=0.5;fontStyle=0;strokeColor=none;" vertex="1" parent="59">
                    <mxGeometry x="60" y="120" width="40" height="40" as="geometry"/>
                </mxCell>
                <mxCell id="77" style="edgeStyle=none;html=1;endArrow=none;endFill=0;" edge="1" parent="59" source="62" target="76">
                    <mxGeometry relative="1" as="geometry"/>
                </mxCell>
                <mxCell id="78" value="break" style="rounded=0;whiteSpace=wrap;html=1;fontSize=19;fontFamily=Times New Roman;fillColor=none;" vertex="1" parent="81">
                    <mxGeometry x="720" y="70" width="67" height="40" as="geometry"/>
                </mxCell>
                <mxCell id="79" value="" style="endArrow=classic;html=1;startSize=6;endSize=6;strokeWidth=2;" edge="1" parent="81">
                    <mxGeometry width="50" height="50" relative="1" as="geometry">
                        <mxPoint x="220" y="90" as="sourcePoint"/>
                        <mxPoint x="260" y="90" as="targetPoint"/>
                    </mxGeometry>
                </mxCell>
                <mxCell id="80" value="" style="endArrow=classic;html=1;startSize=6;endSize=6;strokeWidth=2;" edge="1" parent="81">
                    <mxGeometry width="50" height="50" relative="1" as="geometry">
                        <mxPoint x="460" y="90" as="sourcePoint"/>
                        <mxPoint x="500" y="90" as="targetPoint"/>
                    </mxGeometry>
                </mxCell>
                <mxCell id="126" value="&lt;font style=&quot;font-size: 19px;&quot; face=&quot;Times New Roman&quot;&gt;(b) &lt;/font&gt;&lt;font style=&quot;font-size: 19px;&quot;&gt;情况2.1.2&lt;/font&gt;" style="rounded=0;whiteSpace=wrap;html=1;container=1;verticalAlign=bottom;strokeColor=none;fontFamily=SimSun;fontSize=19;fillColor=none;" vertex="1" parent="1">
                    <mxGeometry x="14" y="340" width="800" height="230" as="geometry">
                        <mxRectangle x="177" y="190" width="50" height="40" as="alternateBounds"/>
                    </mxGeometry>
                </mxCell>
                <mxCell id="124" value="" style="group" vertex="1" connectable="0" parent="126">
                    <mxGeometry x="100" y="-2.2737367544323206e-13" width="600" height="210" as="geometry"/>
                </mxCell>
                <mxCell id="82" value="" style="group" vertex="1" connectable="0" parent="124">
                    <mxGeometry width="220" height="210" as="geometry"/>
                </mxCell>
                <mxCell id="83" style="edgeStyle=none;html=1;endArrow=none;endFill=0;" edge="1" parent="82" source="84">
                    <mxGeometry relative="1" as="geometry">
                        <mxPoint x="110" as="targetPoint"/>
                    </mxGeometry>
                </mxCell>
                <mxCell id="84" value="\(p\)" style="ellipse;whiteSpace=wrap;html=1;fontFamily=Times New Roman;fontSize=19;container=0;fillColor=#808080;fontColor=#FFFFFF;strokeWidth=0.5;fontStyle=0;" vertex="1" parent="82">
                    <mxGeometry x="90" y="20" width="40" height="40" as="geometry"/>
                </mxCell>
                <mxCell id="85" value="\(u\)" style="ellipse;whiteSpace=wrap;html=1;fontFamily=Times New Roman;fontSize=19;container=0;fillColor=#808080;fontColor=#FFFFFF;strokeWidth=0.5;fontStyle=0;" vertex="1" parent="82">
                    <mxGeometry x="30" y="70" width="40" height="40" as="geometry"/>
                </mxCell>
                <mxCell id="86" style="edgeStyle=none;html=1;endArrow=none;endFill=0;" edge="1" parent="82" source="84" target="85">
                    <mxGeometry relative="1" as="geometry"/>
                </mxCell>
                <mxCell id="87" value="\(s\)" style="ellipse;whiteSpace=wrap;html=1;fontFamily=Times New Roman;fontSize=19;container=0;fillColor=#808080;strokeWidth=0.5;fontStyle=0;fontColor=#FFFFFF;" vertex="1" parent="82">
                    <mxGeometry x="150" y="70" width="40" height="40" as="geometry"/>
                </mxCell>
                <mxCell id="88" style="edgeStyle=none;html=1;endArrow=none;endFill=0;" edge="1" parent="82" source="84" target="87">
                    <mxGeometry relative="1" as="geometry"/>
                </mxCell>
                <mxCell id="89" value="\(n_1\)" style="ellipse;whiteSpace=wrap;html=1;fontFamily=Times New Roman;fontSize=19;container=0;fillColor=#808080;fontColor=#FFFFFF;strokeWidth=0.5;fontStyle=0;" vertex="1" parent="82">
                    <mxGeometry x="120" y="120" width="40" height="40" as="geometry"/>
                </mxCell>
                <mxCell id="90" style="edgeStyle=none;html=1;endArrow=none;endFill=0;" edge="1" parent="82" source="87" target="89">
                    <mxGeometry relative="1" as="geometry"/>
                </mxCell>
                <mxCell id="91" value="\(n_2\)" style="ellipse;whiteSpace=wrap;html=1;fontFamily=Times New Roman;fontSize=19;container=0;fillColor=#808080;fontColor=#FFFFFF;strokeWidth=0.5;fontStyle=0;" vertex="1" parent="82">
                    <mxGeometry x="180" y="120" width="40" height="40" as="geometry"/>
                </mxCell>
                <mxCell id="92" style="edgeStyle=none;html=1;endArrow=none;endFill=0;" edge="1" parent="82" source="87" target="91">
                    <mxGeometry relative="1" as="geometry"/>
                </mxCell>
                <mxCell id="93" value="\(h-2\)" style="ellipse;whiteSpace=wrap;html=1;fontFamily=Times New Roman;fontSize=19;container=0;fillColor=none;strokeWidth=0.5;fontStyle=0;strokeColor=none;" vertex="1" parent="82">
                    <mxGeometry x="120" y="170" width="40" height="40" as="geometry"/>
                </mxCell>
                <mxCell id="94" style="edgeStyle=none;html=1;endArrow=none;endFill=0;" edge="1" parent="82" source="89" target="93">
                    <mxGeometry relative="1" as="geometry">
                        <mxPoint x="140" y="170" as="targetPoint"/>
                    </mxGeometry>
                </mxCell>
                <mxCell id="95" value="\(h-2\)" style="ellipse;whiteSpace=wrap;html=1;fontFamily=Times New Roman;fontSize=19;container=0;fillColor=none;strokeWidth=0.5;fontStyle=0;strokeColor=none;" vertex="1" parent="82">
                    <mxGeometry x="180" y="170" width="40" height="40" as="geometry"/>
                </mxCell>
                <mxCell id="96" style="edgeStyle=none;html=1;endArrow=none;endFill=0;" edge="1" parent="82" source="91" target="95">
                    <mxGeometry relative="1" as="geometry">
                        <mxPoint x="200" y="170" as="targetPoint"/>
                    </mxGeometry>
                </mxCell>
                <mxCell id="97" value="\(h-2\)" style="ellipse;whiteSpace=wrap;html=1;fontFamily=Times New Roman;fontSize=19;container=0;fillColor=none;strokeWidth=0.5;fontStyle=0;strokeColor=none;" vertex="1" parent="82">
                    <mxGeometry y="120" width="40" height="40" as="geometry"/>
                </mxCell>
                <mxCell id="98" style="edgeStyle=none;html=1;endArrow=none;endFill=0;" edge="1" parent="82" source="85" target="97">
                    <mxGeometry relative="1" as="geometry"/>
                </mxCell>
                <mxCell id="99" value="\(h-2\)" style="ellipse;whiteSpace=wrap;html=1;fontFamily=Times New Roman;fontSize=19;container=0;fillColor=none;strokeWidth=0.5;fontStyle=0;strokeColor=none;" vertex="1" parent="82">
                    <mxGeometry x="60" y="120" width="40" height="40" as="geometry"/>
                </mxCell>
                <mxCell id="100" style="edgeStyle=none;html=1;endArrow=none;endFill=0;" edge="1" parent="82" source="85" target="99">
                    <mxGeometry relative="1" as="geometry"/>
                </mxCell>
                <mxCell id="101" value="" style="group" vertex="1" connectable="0" parent="124">
                    <mxGeometry x="250" width="220" height="210" as="geometry"/>
                </mxCell>
                <mxCell id="102" style="edgeStyle=none;html=1;endArrow=none;endFill=0;" edge="1" parent="101" source="103">
                    <mxGeometry relative="1" as="geometry">
                        <mxPoint x="110" as="targetPoint"/>
                    </mxGeometry>
                </mxCell>
                <mxCell id="103" value="\(p\)" style="ellipse;whiteSpace=wrap;html=1;fontFamily=Times New Roman;fontSize=19;container=0;fillColor=#808080;fontColor=#FFFFFF;strokeWidth=0.5;fontStyle=0;" vertex="1" parent="101">
                    <mxGeometry x="90" y="20" width="40" height="40" as="geometry"/>
                </mxCell>
                <mxCell id="104" value="\(u\)" style="ellipse;whiteSpace=wrap;html=1;fontFamily=Times New Roman;fontSize=19;container=0;fillColor=#808080;fontColor=#FFFFFF;strokeWidth=0.5;fontStyle=0;" vertex="1" parent="101">
                    <mxGeometry x="30" y="70" width="40" height="40" as="geometry"/>
                </mxCell>
                <mxCell id="105" style="edgeStyle=none;html=1;endArrow=none;endFill=0;" edge="1" parent="101" source="103" target="104">
                    <mxGeometry relative="1" as="geometry"/>
                </mxCell>
                <mxCell id="106" value="\(s\)" style="ellipse;whiteSpace=wrap;html=1;fontFamily=Times New Roman;fontSize=19;container=0;fillColor=#DDD;strokeWidth=0.5;fontStyle=0;fontColor=default;" vertex="1" parent="101">
                    <mxGeometry x="150" y="70" width="40" height="40" as="geometry"/>
                </mxCell>
                <mxCell id="107" style="edgeStyle=none;html=1;endArrow=none;endFill=0;" edge="1" parent="101" source="103" target="106">
                    <mxGeometry relative="1" as="geometry"/>
                </mxCell>
                <mxCell id="108" value="\(n_1\)" style="ellipse;whiteSpace=wrap;html=1;fontFamily=Times New Roman;fontSize=19;container=0;fillColor=#808080;fontColor=#FFFFFF;strokeWidth=0.5;fontStyle=0;" vertex="1" parent="101">
                    <mxGeometry x="120" y="120" width="40" height="40" as="geometry"/>
                </mxCell>
                <mxCell id="109" style="edgeStyle=none;html=1;endArrow=none;endFill=0;" edge="1" parent="101" source="106" target="108">
                    <mxGeometry relative="1" as="geometry"/>
                </mxCell>
                <mxCell id="110" value="\(n_2\)" style="ellipse;whiteSpace=wrap;html=1;fontFamily=Times New Roman;fontSize=19;container=0;fillColor=#808080;fontColor=#FFFFFF;strokeWidth=0.5;fontStyle=0;" vertex="1" parent="101">
                    <mxGeometry x="180" y="120" width="40" height="40" as="geometry"/>
                </mxCell>
                <mxCell id="111" style="edgeStyle=none;html=1;endArrow=none;endFill=0;" edge="1" parent="101" source="106" target="110">
                    <mxGeometry relative="1" as="geometry"/>
                </mxCell>
                <mxCell id="112" value="\(h-2\)" style="ellipse;whiteSpace=wrap;html=1;fontFamily=Times New Roman;fontSize=19;container=0;fillColor=none;strokeWidth=0.5;fontStyle=0;strokeColor=none;" vertex="1" parent="101">
                    <mxGeometry x="120" y="170" width="40" height="40" as="geometry"/>
                </mxCell>
                <mxCell id="113" style="edgeStyle=none;html=1;endArrow=none;endFill=0;" edge="1" parent="101" source="108" target="112">
                    <mxGeometry relative="1" as="geometry">
                        <mxPoint x="140" y="170" as="targetPoint"/>
                    </mxGeometry>
                </mxCell>
                <mxCell id="114" value="\(h-2\)" style="ellipse;whiteSpace=wrap;html=1;fontFamily=Times New Roman;fontSize=19;container=0;fillColor=none;strokeWidth=0.5;fontStyle=0;strokeColor=none;" vertex="1" parent="101">
                    <mxGeometry x="180" y="170" width="40" height="40" as="geometry"/>
                </mxCell>
                <mxCell id="115" style="edgeStyle=none;html=1;endArrow=none;endFill=0;" edge="1" parent="101" source="110" target="114">
                    <mxGeometry relative="1" as="geometry">
                        <mxPoint x="200" y="170" as="targetPoint"/>
                    </mxGeometry>
                </mxCell>
                <mxCell id="116" value="\(h-2\)" style="ellipse;whiteSpace=wrap;html=1;fontFamily=Times New Roman;fontSize=19;container=0;fillColor=none;strokeWidth=0.5;fontStyle=0;strokeColor=none;" vertex="1" parent="101">
                    <mxGeometry y="120" width="40" height="40" as="geometry"/>
                </mxCell>
                <mxCell id="117" style="edgeStyle=none;html=1;endArrow=none;endFill=0;" edge="1" parent="101" source="104" target="116">
                    <mxGeometry relative="1" as="geometry"/>
                </mxCell>
                <mxCell id="118" value="\(h-2\)" style="ellipse;whiteSpace=wrap;html=1;fontFamily=Times New Roman;fontSize=19;container=0;fillColor=none;strokeWidth=0.5;fontStyle=0;strokeColor=none;" vertex="1" parent="101">
                    <mxGeometry x="60" y="120" width="40" height="40" as="geometry"/>
                </mxCell>
                <mxCell id="119" style="edgeStyle=none;html=1;endArrow=none;endFill=0;" edge="1" parent="101" source="104" target="118">
                    <mxGeometry relative="1" as="geometry"/>
                </mxCell>
                <mxCell id="122" value="向上回溯" style="rounded=0;whiteSpace=wrap;html=1;fontSize=19;fontFamily=SimSun;strokeColor=none;fillColor=none;" vertex="1" parent="124">
                    <mxGeometry x="510" y="70" width="90" height="40" as="geometry"/>
                </mxCell>
                <mxCell id="120" value="" style="endArrow=classic;html=1;startSize=6;endSize=6;strokeWidth=2;" edge="1" parent="124">
                    <mxGeometry width="50" height="50" relative="1" as="geometry">
                        <mxPoint x="220" y="89.99999999999989" as="sourcePoint"/>
                        <mxPoint x="260" y="89.99999999999989" as="targetPoint"/>
                    </mxGeometry>
                </mxCell>
                <mxCell id="121" value="" style="endArrow=classic;html=1;startSize=6;endSize=6;strokeWidth=2;" edge="1" parent="124">
                    <mxGeometry width="50" height="50" relative="1" as="geometry">
                        <mxPoint x="470" y="89.99999999999989" as="sourcePoint"/>
                        <mxPoint x="510" y="89.99999999999989" as="targetPoint"/>
                    </mxGeometry>
                </mxCell>
            </root>
        </mxGraphModel>
    </diagram>
</mxfile>